<?xml version="1.0" encoding="UTF-8" standalone="no"?>
            <svg id="logo-dino"  xmlns:rdf="http://www.w3.org/1999/02/22-rdf-syntax-ns#" xmlns="http://www.w3.org/2000/svg" height="28.222mm" viewBox="0 0 455.6672 99.999997" width="128.6mm" version="1.1" xmlns:cc="http://creativecommons.org/ns#" xmlns:dc="http://purl.org/dc/elements/1.1/">
                <metadata id="metadata7">
                    <rdf:RDF>
                        <cc:Work rdf:about="">
                            <dc:format>image/svg+xml</dc:format>
                            <dc:type rdf:resource="http://purl.org/dc/dcmitype/StillImage"/>
                            <dc:title/>
                        </cc:Work>
                    </rdf:RDF>
                </metadata>
                <g id="layer1" transform="translate(-101.5 -256.3)">
                    <g id="g3435" font-size="40px" font-family="sans-serif">
                        <flowRoot id="flowRoot3344" xml:space="preserve" style="word-spacing:0px;letter-spacing:0px" line-height="125%"><flowRegion id="flowRegion3346"><rect id="rect3348" y="318.08" width="408.57" height="225.71" x="182.86"/></flowRegion><flowPara id="flowPara3350"/></flowRoot>
   <flowRoot id="flowRoot3352" xml:space="preserve" style="word-spacing:0px;letter-spacing:0px" line-height="125%"><flowRegion id="flowRegion3354"><rect id="rect3356" y="320.93" width="120" height="45.714" x="205.71"/></flowRegion><flowPara id="flowPara3358"/></flowRoot>
   <flowRoot id="flowRoot3360" xml:space="preserve" style="word-spacing:0px;letter-spacing:0px" line-height="125%"><flowRegion id="flowRegion3362"><rect id="rect3364" y="218.08" width="388.57" height="397.14" x="271.43"/></flowRegion><flowPara id="flowPara3366"/></flowRoot>
   <flowRoot id="flowRoot3384" xml:space="preserve" style="word-spacing:0px;letter-spacing:0px" line-height="125%"><flowRegion id="flowRegion3386"><rect id="rect3388" y="79.751" width="681.35" height="308.6" x="-140.43"/></flowRegion><flowPara id="flowPara3390"/></flowRoot>
   <flowRoot id="flowRoot3432" xml:space="preserve" style="word-spacing:0px;letter-spacing:0px" line-height="125%"><flowRegion id="flowRegion3434"><rect id="rect3436" y="202.55" width=".65521" height="58.314" x="171.67"/></flowRegion><flowPara id="flowPara3438"/></flowRoot>
   <flowRoot id="flowRoot3470" xml:space="preserve" style="word-spacing:0px;letter-spacing:0px" line-height="125%"><flowRegion id="flowRegion3472"><rect id="rect3474" y="270.77" width="268.72" height="89.418" x="166.33"/></flowRegion><flowPara id="flowPara3476"/></flowRoot>
                    </g>
                    <g id="g3562">
                        <g id="g3530">
                            <g id="grupa">
                                <path id="imageBone" d="m510.61 346.7c-2.286-1.0384-4.249-3.279-4.6271-5.2816-0.2406-1.2744-0.62622-1.6273-2.6431-2.4187-7.1708-2.8138-7.2473-12.13-0.12196-14.851 2.1974-0.83921 4.1566-0.69095 6.4104 0.48512 0.88179 0.46014 1.5693 0.54532 2.0849 0.25832 0.42309-0.23552 5.9379-5.6115 12.255-11.947l11.486-11.518-0.93555-2.0623c-1.1432-2.5202-1.1873-4.0135-0.19174-6.5016 1.1385-2.8454 3.7938-4.5952 6.9729-4.5952 1.3759 0 3.0919 0.30524 3.8134 0.67831 1.7514 0.90568 3.5905 3.1522 3.9608 4.8382 0.34657 1.5779 0.90638 2.1143 2.6378 2.5273 1.7321 0.41318 4.0974 2.5176 4.8476 4.3131 1.5712 3.7603-0.0116 8.3499-3.5193 10.205-2.5161 1.3306-4.6949 1.3528-7.3346 0.075l-2.049-0.99188-12.016 12.016-12.016 12.016 0.93627 2.0639c2.0539 4.5277 0.55505 8.6261-3.9081 10.686-2.3324 1.0764-3.6806 1.0775-6.0421 0.005v-0.00001z"/>
                                <g id="g3466" font-size="40px" font-family="sans-serif">
                                    <text id="text-D" style="word-spacing:0px;letter-spacing:0px" font-weight="bold" xml:space="preserve" line-height="125%" y="329.45905" x="203.67583" font-family="sans-serif"><tspan id="tspan3496" font-weight="bold" y="329.45905" x="203.67583" font-family="sans-serif">D</tspan></text>
      <text id="text-i1" style="word-spacing:0px;letter-spacing:0px" xml:space="preserve" line-height="125%" y="323.97888" x="246.03729"><tspan id="tspan3500" font-weight="bold" y="323.97888" x="246.03729" font-family="sans-serif">i</tspan></text>
      <text id="text-n" style="word-spacing:0px;letter-spacing:0px" xml:space="preserve" line-height="125%" y="329.87579" x="269.46829"><tspan id="tspan3504" font-weight="bold" y="329.87579" x="269.46829" font-family="sans-serif">n</tspan></text>
      <text id="text-o1" style="word-spacing:0px;letter-spacing:0px" xml:space="preserve" line-height="125%" y="323.4361" x="302.48416"><tspan id="tspan3508" font-weight="bold" y="323.4361" x="302.48416" font-family="sans-serif">o</tspan></text>
      <text id="text-p" style="word-spacing:0px;letter-spacing:0px" xml:space="preserve" line-height="125%" y="329.63248" x="334.06357"><tspan id="tspan3512" font-weight="bold" y="329.63248" x="334.06357" font-family="sans-serif">p</tspan></text>
      <text id="text-o2" style="word-spacing:0px;letter-spacing:0px" xml:space="preserve" line-height="125%" y="324.4422" x="368.39468"><tspan id="tspan3516" font-weight="bold" y="324.4422" x="368.39468" font-family="sans-serif">o</tspan></text>
      <text id="text-d" style="word-spacing:0px;letter-spacing:0px" xml:space="preserve" line-height="125%" y="330.99432" x="400.5217"><tspan id="tspan3520" font-weight="bold" y="330.99432" x="400.5217" font-family="sans-serif">d</tspan></text>
      <text id="text-i2" style="word-spacing:0px;letter-spacing:0px" xml:space="preserve" line-height="125%" y="325.91644" x="438.40506"><tspan id="tspan3524" font-weight="bold" y="325.91644" x="438.40506" font-family="sans-serif">i</tspan></text>
      <text id="text-a" style="word-spacing:0px;letter-spacing:0px" xml:space="preserve" line-height="125%" y="330.55429" x="460.4751"><tspan id="tspan3528" font-weight="bold" y="330.55429" x="460.4751" font-family="sans-serif">a</tspan></text>
                                </g>
                            </g>
                        </g>
                        <g id="g3629" transform="matrix(.20565 0 0 .16689 113.07 267.58)">
                            <g id="g3589">
                                <path id="imageDino" d="m568.76 411.4c-31.184 3.076-61.833-1.281-92.567-5.862-23.835-3.554-46.296-10.878-66.015-24.293-15.283-10.399-28.552-23.721-43.068-35.3-26.116-20.829-52.93-40.739-85.623-50.209-12.04-3.488-24.509-6.144-36.965-7.384-13.142-1.314-24.672-6.19-36.133-11.89-19.147-9.527-38.393-19.339-53.142-35.043-14.656-15.606-28.168-32.383-41.2-49.4-16.134-21.07-31.006-43.09-46.905-64.33-8.119-10.85-16.96-21.33-29.176-27.952-5.773-3.129-11.742-4.831-17.85-7.238-1.216-0.481-2.44-2.105-3.668-2.546-2.016-0.727-6.014 1.053-7.654 2.941-2.248 2.587-1.077 4.452-2.46 7.495-0.567 1.249-7.772 4.786-6.08 8.058 2.032-0.29 4.325-1.33 4.97-0.706 0.326 0.739-1.396 2.211-2.771 4.39 2.371 2.077 4.178-0.22 5.516-0.816 8.168-3.647 15.553-2.236 22.167 3.407 12.95 11.053 23.75 24.019 32.089 38.813 12.546 22.256 24.435 44.88 36.867 67.202 12.97 23.293 30.828 42.636 50.057 60.816 9.821 9.286 20.058 18.185 29.323 27.993 8.307 8.788 11.016 20.633 15.026 31.755 3.778 10.481 8.715 20.538 12.966 30.853 0.987 2.391 1.869 5.112 1.75 7.63-1.29 26.903-2.599 53.807-4.402 80.678-0.334 4.961-2.362 10.021-4.553 14.578-0.143 0.294-0.245 0.547-0.363 0.815-2.179 0.633-5.019 1.828-6.822 4.108-2.901 3.664 2.289 0.931 7.928 1.037 0.62 0.159 1.346 0.277 2.301 0.317 5.414 0.233 10.91 0.245 16.255-0.485 1.559-0.212 3.753-3.223 3.904-5.088 1.155-14.467 1.824-28.972 2.774-43.456 0.294-4.517 0.983-9.004 2.554-13.517 4.276 19.185 16.671 36.826 11.583 58.14-2.162 0.755-5.087 2.158-6.805 4.659-2.566 3.733 2.048 0.947 7.47 0.526 6.475 0.041 12.509 0.217 18.454-0.313 1.053-0.094 2.733-4.268 2.464-6.341-2.032-15.549-4.562-31.028-6.756-46.557-1.11-7.834-1.844-15.725-2.742-23.529 26.471 3.55 52.608 7.055 79.267 10.633-2.656 20.216 0.669 42.374-10.281 62.534-1.27 0.774-2.493 1.75-3.383 3.043-2.477 3.603 1.746 1.155 6.916 0.6 5.111 0.065 10.232 0.225 15.312-0.146 3.885-0.281 5.325-3.272 5.186-7.132-0.656-18.271 4.913-35.528 8.744-53.068 0.11-0.506 0.51-0.951 1.334-2.411 0.901 4.594 1.604 8.294 2.362 11.979 1.868 9.11 3.338 18.331 5.777 27.287 1.848 6.789 1.962 13.104-1.869 20.236-1.391 0.8-2.758 1.841-3.725 3.252-2.95 4.288 3.578-0.032 9.918 0.522 0.816 0.073 1.412 0.021 1.837-0.11 3.361 0.004 6.516 0 9.657-0.021 4.337-0.032 5.896-2.79 5.467-6.552-0.869-7.671-1.412-15.476-3.309-22.914-3.623-14.198-4.818-28.482-4.268-44.305 66.002 7.813 131.57 16.186 197.39 5.284 0.033-0.82 0.062-1.645 0.095-2.465-1.725-0.08-3.45-0.378-5.131-0.211z"/>
                            </g>
                        </g>
                    </g>
                </g>
            </svg>